<svg width="160" height="50" viewBox="0 0 160 50" fill="none" xmlns="http://www.w3.org/2000/svg">
<rect width="160" height="50" rx="8" fill="white"/>
<path fill-rule="evenodd" clip-rule="evenodd" d="M72.8403 11.2637C72.6938 11.4062 72.5171 11.4775 72.3103 11.4775C72.0949 11.4775 71.9161 11.4062 71.7739 11.2637C71.6317 11.1211 71.5606 10.9418 71.5606 10.7258C71.5606 10.5184 71.6317 10.3456 71.7739 10.2074C71.9161 10.0691 72.0949 10 72.3103 10C72.5171 10 72.6938 10.0691 72.8403 10.2074C72.9868 10.3456 73.06 10.5184 73.06 10.7258C73.06 10.9418 72.9868 11.1211 72.8403 11.2637ZM51.4077 19.4873C52.1919 19.4873 52.821 19.3447 53.2949 19.0595C53.7689 18.7744 54.1696 18.3683 54.497 17.8412L54.5875 19.3317H55.5828V14.4844H51.8601V15.3398H54.4712C54.4022 16.3248 54.1222 17.1003 53.631 17.6663C53.1398 18.2322 52.4116 18.5152 51.4465 18.5152C50.8174 18.5152 50.2659 18.3661 49.792 18.0681C49.318 17.77 48.9475 17.3444 48.6804 16.7914C48.4132 16.2384 48.2797 15.5774 48.2797 14.8084C48.2797 14.0394 48.4154 13.3784 48.6868 12.8254C48.9583 12.2724 49.3396 11.8469 49.8308 11.5488C50.322 11.2507 50.8993 11.1017 51.5628 11.1017C52.2695 11.1017 52.849 11.2615 53.3014 11.5812C53.7538 11.9009 54.0403 12.3329 54.1609 12.8773H55.4148C55.2166 12.0132 54.7792 11.335 54.1028 10.8424C53.4263 10.3499 52.5797 10.1037 51.5628 10.1037C50.6666 10.1037 49.8889 10.3024 49.2297 10.6999C48.5705 11.0973 48.0621 11.6503 47.7045 12.3589C47.3468 13.0674 47.168 13.8839 47.168 14.8084C47.168 15.733 47.3447 16.5473 47.698 17.2515C48.0513 17.9557 48.5468 18.5044 49.1845 18.8975C49.8222 19.2907 50.5632 19.4873 51.4077 19.4873ZM59.8325 19.4873C60.5908 19.4873 61.2134 19.2907 61.7003 18.8975C62.1872 18.5044 62.5168 18.0097 62.6892 17.4135H61.6163C61.4784 17.7678 61.2587 18.0486 60.9571 18.256C60.6555 18.4634 60.2806 18.567 59.8325 18.567C59.4878 18.567 59.1625 18.485 58.8566 18.3208C58.5507 18.1566 58.2965 17.9125 58.094 17.5885C57.8915 17.2645 57.7773 16.8562 57.7515 16.3637H62.8572C62.8572 16.2427 62.8593 16.1347 62.8637 16.0397C62.868 15.9447 62.8701 15.8496 62.8701 15.7546C62.8701 15.2275 62.7495 14.735 62.5082 14.277C62.2669 13.8191 61.9201 13.4497 61.4677 13.1689C61.0152 12.8881 60.4788 12.7477 59.8584 12.7477C59.2293 12.7477 58.6757 12.8881 58.1974 13.1689C57.7191 13.4497 57.3465 13.8429 57.0793 14.3483C56.8122 14.8538 56.6786 15.4435 56.6786 16.1175C56.6786 16.8001 56.8143 17.3919 57.0858 17.8931C57.3572 18.3942 57.7299 18.7852 58.2039 19.066C58.6778 19.3468 59.2207 19.4873 59.8325 19.4873ZM57.7644 15.5213H61.7973C61.7714 14.9424 61.5732 14.4887 61.2027 14.1604C60.8321 13.8321 60.3754 13.6679 59.8325 13.6679C59.3155 13.6679 58.8566 13.8256 58.4559 14.141C58.0552 14.4563 57.8247 14.9164 57.7644 15.5213ZM67.3137 19.3317V18.3986H66.6416C66.228 18.3986 65.9393 18.3273 65.7756 18.1847C65.6118 18.0421 65.53 17.7678 65.53 17.3617V13.8234H67.4172V12.9032H65.53V11.3609H64.5864L64.4442 12.9032H63.3326V13.8234H64.4442V17.3617C64.4442 18.1048 64.6122 18.6189 64.9483 18.904C65.2844 19.1892 65.7454 19.3317 66.3314 19.3317H67.3137ZM77.969 18.3986V19.3317H76.9866C76.4006 19.3317 75.9396 19.1892 75.6035 18.904C75.2675 18.6189 75.0994 18.1048 75.0994 17.3617V13.8234H73.9878V12.9032H75.0994L75.2416 11.3609H76.1852V12.9032H78.0724V13.8234H76.1852V17.3617C76.1852 17.7678 76.2671 18.0421 76.4308 18.1847C76.5945 18.3273 76.8832 18.3986 77.2968 18.3986H77.969ZM72.8532 19.3317V12.9032H71.7674V19.3317H72.8532ZM85.2276 19.4873C85.8308 19.4873 86.3758 19.349 86.8627 19.0725C87.3496 18.796 87.7352 18.405 88.0196 17.8996C88.3039 17.3941 88.4461 16.8001 88.4461 16.1175C88.4461 15.4349 88.3061 14.8408 88.026 14.3354C87.746 13.8299 87.3647 13.4389 86.8821 13.1624C86.3995 12.8859 85.8566 12.7477 85.2534 12.7477C84.6502 12.7477 84.1052 12.8859 83.6183 13.1624C83.1314 13.4389 82.7458 13.8299 82.4614 14.3354C82.1771 14.8408 82.0349 15.4349 82.0349 16.1175C82.0349 16.8001 82.1749 17.3941 82.455 17.8996C82.735 18.405 83.1164 18.796 83.5989 19.0725C84.0815 19.349 84.6244 19.4873 85.2276 19.4873ZM84.2129 18.2819C84.5274 18.4634 84.8657 18.5541 85.2276 18.5541C85.5981 18.5541 85.9428 18.4634 86.2617 18.2819C86.5805 18.1005 86.839 17.8283 87.0372 17.4654C87.2354 17.1025 87.3345 16.6532 87.3345 16.1175C87.3345 15.5818 87.2376 15.1324 87.0437 14.7695C86.8498 14.4066 86.5934 14.1345 86.2746 13.953C85.9557 13.7716 85.6154 13.6808 85.2534 13.6808C84.8829 13.6808 84.5382 13.7716 84.2194 13.953C83.9005 14.1345 83.642 14.4066 83.4438 14.7695C83.2456 15.1324 83.1465 15.5818 83.1465 16.1175C83.1465 16.6532 83.2456 17.1025 83.4438 17.4654C83.642 17.8283 83.8984 18.1005 84.2129 18.2819ZM90.757 16.0008C90.757 15.2577 90.9401 14.6853 91.3063 14.2835C91.6726 13.8817 92.1314 13.6808 92.6829 13.6808C93.786 13.6808 94.3375 14.3505 94.3375 15.6898V19.3317H95.4232V15.5731C95.4232 14.614 95.197 13.9033 94.7446 13.4411C94.2922 12.9788 93.6869 12.7477 92.9285 12.7477C92.4374 12.7477 91.9979 12.8643 91.6101 13.0976C91.2223 13.3309 90.925 13.6506 90.7182 14.0567L90.6536 12.9032H89.6712V19.3317H90.757V16.0008ZM87.6031 39.4747C88.4933 39.4747 89.2427 39.3137 89.8512 38.9916C90.4597 38.6696 90.9161 38.2516 91.2203 37.7374C91.5246 37.2233 91.6767 36.6669 91.6767 36.068C91.6767 35.3901 91.5387 34.8308 91.2626 34.3901C90.9865 33.9494 90.6175 33.5935 90.1554 33.3223C89.6934 33.0511 89.1694 32.8195 88.5835 32.6274C87.9749 32.4128 87.434 32.2235 86.9608 32.0597C86.4875 31.8958 86.1156 31.6896 85.8452 31.441C85.5747 31.1924 85.4395 30.8365 85.4395 30.3733C85.4395 29.8535 85.6226 29.4467 85.9888 29.153C86.3551 28.8592 86.8199 28.7179 87.3833 28.7292C87.8228 28.7292 88.1947 28.8196 88.4989 29.0004C88.8032 29.1812 89.0342 29.41 89.192 29.6868C89.3497 29.9637 89.4286 30.2546 89.4286 30.5597H91.3218C91.3105 29.8931 91.1415 29.3083 90.8147 28.8055C90.4879 28.3027 90.0343 27.9101 89.454 27.6276C88.8736 27.3451 88.2003 27.2039 87.434 27.2039C86.6565 27.2039 85.9776 27.3423 85.3972 27.6191C84.8169 27.8959 84.3661 28.2829 84.045 28.7801C83.7238 29.2773 83.5689 29.8592 83.5801 30.5258C83.5801 31.3167 83.8083 31.9551 84.2647 32.441C84.7211 32.9269 85.4057 33.3223 86.3184 33.6274C86.7805 33.7856 87.2199 33.9325 87.6369 34.0681C88.0538 34.2037 88.4229 34.3562 88.744 34.5257C89.0652 34.6952 89.3187 34.9098 89.5047 35.1697C89.6906 35.4296 89.7836 35.7686 89.7836 36.1866C89.7836 36.7064 89.5892 37.1329 89.2004 37.4663C88.8116 37.7996 88.2736 37.9663 87.5862 37.9663C86.8086 37.9663 86.2058 37.7459 85.7775 37.3053C85.3493 36.8646 85.1296 36.3279 85.1183 35.6951H83.2252C83.2364 36.4748 83.4252 37.1471 83.7914 37.712C84.1577 38.277 84.6676 38.712 85.3212 39.0171C85.9747 39.3221 86.7354 39.4747 87.6031 39.4747ZM49.9073 36.3731L48.8931 39.2713H47L51.361 27.4073H53.3218L57.6489 39.2713H55.7558L54.7416 36.3731H49.9073ZM52.3245 29.5428L50.4144 34.9494H54.2345L52.3245 29.5428ZM60.6539 43V37.9832C60.9469 38.4578 61.3441 38.825 61.8456 39.0849C62.3471 39.3447 62.9246 39.4747 63.5782 39.4747C64.4008 39.4747 65.122 39.2854 65.7418 38.9069C66.3615 38.5284 66.8489 38.0086 67.2039 37.3476C67.5588 36.6866 67.7363 35.9324 67.7363 35.085C67.7363 34.2376 67.5588 33.4805 67.2039 32.8139C66.8489 32.1472 66.3615 31.6218 65.7418 31.2376C65.122 30.8535 64.4064 30.6614 63.5951 30.6614C62.8513 30.6614 62.2428 30.8139 61.7695 31.119C61.2962 31.4241 60.9244 31.7743 60.6539 32.1698L60.468 30.8648H58.8622V43H60.6539ZM61.3892 37.1273C61.8794 37.6527 62.5076 37.9154 63.2739 37.9154C64.0402 37.9154 64.6712 37.6527 65.1671 37.1273C65.6629 36.6019 65.9108 35.9155 65.9108 35.068C65.9108 34.5144 65.7981 34.0229 65.5727 33.5935C65.3474 33.1641 65.0375 32.828 64.6431 32.5851C64.2487 32.3421 63.7923 32.2207 63.2739 32.2207C62.5076 32.2207 61.8794 32.4862 61.3892 33.0173C60.899 33.5483 60.6539 34.2319 60.6539 35.068C60.6539 35.9155 60.899 36.6019 61.3892 37.1273ZM71.0963 43V37.9832C71.3893 38.4578 71.7865 38.825 72.2879 39.0849C72.7894 39.3447 73.3669 39.4747 74.0205 39.4747C74.8431 39.4747 75.5643 39.2854 76.1841 38.9069C76.8039 38.5284 77.2913 38.0086 77.6462 37.3476C78.0012 36.6866 78.1787 35.9324 78.1787 35.085C78.1787 34.2376 78.0012 33.4805 77.6462 32.8139C77.2913 32.1472 76.8039 31.6218 76.1841 31.2376C75.5643 30.8535 74.8488 30.6614 74.0374 30.6614C73.2937 30.6614 72.6852 30.8139 72.2119 31.119C71.7386 31.4241 71.3667 31.7743 71.0963 32.1698L70.9103 30.8648H69.3046V43H71.0963ZM71.8316 37.1273C72.3218 37.6527 72.95 37.9154 73.7163 37.9154C74.4825 37.9154 75.1136 37.6527 75.6094 37.1273C76.1052 36.6019 76.3531 35.9155 76.3531 35.068C76.3531 34.5144 76.2404 34.0229 76.0151 33.5935C75.7897 33.1641 75.4798 32.828 75.0854 32.5851C74.691 32.3421 74.2346 32.2207 73.7163 32.2207C72.95 32.2207 72.3218 32.4862 71.8316 33.0173C71.3414 33.5483 71.0963 34.2319 71.0963 35.068C71.0963 35.9155 71.3414 36.6019 71.8316 37.1273ZM98.0961 37.7459V39.2713H96.7101C95.8875 39.2713 95.2339 39.0707 94.7493 38.6696C94.2648 38.2685 94.0225 37.5538 94.0225 36.5256V32.3732H92.5857V30.8648H94.0225L94.2422 28.7292H95.8142V30.8648H98.1806V32.3732H95.8142V36.5256C95.8142 36.9889 95.9128 37.3081 96.11 37.4832C96.3072 37.6584 96.6481 37.7459 97.1327 37.7459H98.0961ZM103.349 39.4747C104.149 39.4747 104.871 39.2911 105.513 38.9239C106.155 38.5566 106.665 38.0425 107.043 37.3815C107.42 36.7205 107.609 35.9494 107.609 35.068C107.609 34.1867 107.42 33.4155 107.043 32.7545C106.665 32.0935 106.158 31.5794 105.521 31.2122C104.885 30.845 104.166 30.6614 103.366 30.6614C102.577 30.6614 101.862 30.845 101.219 31.2122C100.577 31.5794 100.067 32.0935 99.6897 32.7545C99.3122 33.4155 99.1235 34.1867 99.1235 35.068C99.1235 35.9494 99.3094 36.7205 99.6813 37.3815C100.053 38.0425 100.557 38.5566 101.194 38.9239C101.831 39.2911 102.549 39.4747 103.349 39.4747ZM102.166 37.6103C102.527 37.825 102.921 37.9324 103.349 37.9324C103.777 37.9324 104.175 37.825 104.541 37.6103C104.907 37.3956 105.203 37.0765 105.428 36.6527C105.654 36.229 105.766 35.7008 105.766 35.068C105.766 34.4353 105.657 33.9071 105.437 33.4833C105.217 33.0596 104.924 32.7404 104.558 32.5257C104.192 32.3111 103.794 32.2037 103.366 32.2037C102.938 32.2037 102.541 32.3111 102.174 32.5257C101.808 32.7404 101.512 33.0596 101.287 33.4833C101.062 33.9071 100.949 34.4353 100.949 35.068C100.949 35.7008 101.062 36.229 101.287 36.6527C101.512 37.0765 101.805 37.3956 102.166 37.6103ZM110.969 39.2713V35.2375C110.969 34.5483 111.084 34.0087 111.315 33.6189C111.546 33.2291 111.856 32.9523 112.245 32.7884C112.634 32.6246 113.076 32.5427 113.572 32.5427H114.062V30.6614C113.318 30.6614 112.684 30.8224 112.16 31.1444C111.636 31.4664 111.228 31.9043 110.935 32.4579L110.783 30.8648H109.177V39.2713H110.969ZM121.403 38.6781C120.732 39.2092 119.901 39.4747 118.909 39.4747C118.087 39.4747 117.357 39.2911 116.721 38.9239C116.084 38.5566 115.585 38.0453 115.225 37.39C114.864 36.7347 114.684 35.972 114.684 35.1019C114.684 34.2206 114.861 33.4466 115.216 32.78C115.571 32.1133 116.067 31.5936 116.704 31.2207C117.34 30.8478 118.081 30.6614 118.926 30.6614C119.749 30.6614 120.465 30.845 121.073 31.2122C121.682 31.5794 122.155 32.0681 122.493 32.6783C122.831 33.2884 123 33.9607 123 34.6952C123 34.8082 122.997 34.9296 122.992 35.0596C122.986 35.1895 122.977 35.3336 122.966 35.4918H116.442C116.498 36.3053 116.766 36.9239 117.244 37.3476C117.723 37.7713 118.278 37.9832 118.909 37.9832C119.417 37.9832 119.842 37.8674 120.186 37.6358C120.529 37.4041 120.786 37.0906 120.955 36.6951H122.746C122.521 37.486 122.073 38.147 121.403 38.6781ZM121.208 34.2715H116.475C116.577 33.5596 116.859 33.0257 117.321 32.6698C117.783 32.3139 118.312 32.1359 118.909 32.1359C119.552 32.1359 120.087 32.328 120.515 32.7122C120.943 33.0963 121.174 33.6161 121.208 34.2715Z" fill="#171717"/>
<g clip-path="url(#clip0_101_2919)">
<path fill-rule="evenodd" clip-rule="evenodd" d="M29.9785 13C30.1073 14.2807 29.6433 15.5428 28.9652 16.4704C28.2575 17.3837 27.1255 18.0822 26.023 17.9922C25.8786 16.7598 26.4373 15.4494 27.0626 14.6499C27.7695 13.7426 28.997 13.0475 29.9785 13ZM34.4257 21.1085C34.2876 21.1871 32.0092 22.4836 32.0341 25.1273C32.0628 28.3202 34.9645 29.3757 35 29.3873C34.9827 29.4617 34.5456 30.9106 33.4572 32.3818C32.5484 33.6771 31.5962 34.9433 30.0837 34.9665C29.3647 34.9822 28.8792 34.7852 28.3733 34.5798C27.8456 34.3656 27.2957 34.1424 26.4354 34.1424C25.5233 34.1424 24.949 34.3728 24.3951 34.595C23.9162 34.7871 23.4526 34.973 22.7992 34.9987C21.3587 35.0492 20.2582 33.6159 19.3164 32.3323C17.4337 29.7113 15.9681 24.9463 17.9332 21.7037C18.8854 20.1134 20.6216 19.0894 22.4774 19.0621C23.2946 19.0461 24.0785 19.3463 24.7656 19.6095C25.291 19.8107 25.7599 19.9903 26.144 19.9903C26.4813 19.9903 26.9371 19.8179 27.4683 19.617C28.3054 19.3003 29.3298 18.9128 30.3734 19.0174C31.0872 19.0373 33.1182 19.2861 34.4285 21.1069L34.4257 21.1085Z" fill="#171717"/>
</g>
<defs>
<clipPath id="clip0_101_2919">
<rect width="24" height="24" fill="white" transform="translate(14 13)"/>
</clipPath>
</defs>
</svg>
