<svg width="16" height="18" viewBox="0 0 16 18" fill="none" xmlns="http://www.w3.org/2000/svg">
<path fill-rule="evenodd" clip-rule="evenodd" d="M2.99992 3.80168C2.42462 3.80168 1.95825 4.26805 1.95825 4.84334V14.8433C1.95825 15.4186 2.42462 15.885 2.99992 15.885H12.9999C13.5752 15.885 14.0416 15.4186 14.0416 14.8433V4.84334C14.0416 4.26805 13.5752 3.80168 12.9999 3.80168H2.99992ZM0.708252 4.84334C0.708252 3.57769 1.73427 2.55168 2.99992 2.55168H12.9999C14.2656 2.55168 15.2916 3.57769 15.2916 4.84334V14.8433C15.2916 16.109 14.2656 17.135 12.9999 17.135H2.99992C1.73427 17.135 0.708252 16.109 0.708252 14.8433V4.84334Z" fill="#111827"/>
<path fill-rule="evenodd" clip-rule="evenodd" d="M11.3333 0.88501C11.6784 0.88501 11.9583 1.16483 11.9583 1.51001V4.84334C11.9583 5.18852 11.6784 5.46834 11.3333 5.46834C10.9881 5.46834 10.7083 5.18852 10.7083 4.84334V1.51001C10.7083 1.16483 10.9881 0.88501 11.3333 0.88501Z" fill="#111827"/>
<path fill-rule="evenodd" clip-rule="evenodd" d="M4.66659 0.88501C5.01176 0.88501 5.29158 1.16483 5.29158 1.51001V4.84334C5.29158 5.18852 5.01176 5.46834 4.66659 5.46834C4.32141 5.46834 4.04159 5.18852 4.04159 4.84334V1.51001C4.04159 1.16483 4.32141 0.88501 4.66659 0.88501Z" fill="#111827"/>
<path fill-rule="evenodd" clip-rule="evenodd" d="M0.708252 8.17668C0.708252 7.8315 0.988074 7.55168 1.33325 7.55168H14.6666C15.0118 7.55168 15.2916 7.8315 15.2916 8.17668C15.2916 8.52185 15.0118 8.80168 14.6666 8.80168H1.33325C0.988074 8.80168 0.708252 8.52185 0.708252 8.17668Z" fill="#111827"/>
<path fill-rule="evenodd" clip-rule="evenodd" d="M6.33325 11.51C6.33325 11.0498 6.70635 10.6767 7.16658 10.6767H7.99992C8.46016 10.6767 8.83325 11.0498 8.83325 11.51C8.83325 11.9702 8.46016 12.3433 7.99992 12.3433H7.16658C6.70635 12.3433 6.33325 11.9702 6.33325 11.51Z" fill="#111827"/>
<path fill-rule="evenodd" clip-rule="evenodd" d="M7.99992 10.885C8.3451 10.885 8.62492 11.1648 8.62492 11.51V14.01C8.62492 14.3552 8.3451 14.635 7.99992 14.635C7.65474 14.635 7.37492 14.3552 7.37492 14.01V11.51C7.37492 11.1648 7.65474 10.885 7.99992 10.885Z" fill="#111827"/>
</svg>