<svg width="20" height="20" viewBox="0 0 20 20" fill="none" xmlns="http://www.w3.org/2000/svg">
<path fill-rule="evenodd" clip-rule="evenodd" d="M5.00004 4.79167C4.42474 4.79167 3.95837 5.25804 3.95837 5.83333V15.8333C3.95837 16.4086 4.42474 16.875 5.00004 16.875H15C15.5753 16.875 16.0417 16.4086 16.0417 15.8333V5.83333C16.0417 5.25804 15.5753 4.79167 15 4.79167H5.00004ZM2.70837 5.83333C2.70837 4.56768 3.73439 3.54167 5.00004 3.54167H15C16.2657 3.54167 17.2917 4.56768 17.2917 5.83333V15.8333C17.2917 17.099 16.2657 18.125 15 18.125H5.00004C3.73439 18.125 2.70837 17.099 2.70837 15.8333V5.83333Z" fill="#111827"/>
<path fill-rule="evenodd" clip-rule="evenodd" d="M13.3334 1.875C13.6786 1.875 13.9584 2.15482 13.9584 2.5V5.83333C13.9584 6.17851 13.6786 6.45833 13.3334 6.45833C12.9882 6.45833 12.7084 6.17851 12.7084 5.83333V2.5C12.7084 2.15482 12.9882 1.875 13.3334 1.875Z" fill="#111827"/>
<path fill-rule="evenodd" clip-rule="evenodd" d="M6.66671 1.875C7.01189 1.875 7.29171 2.15482 7.29171 2.5V5.83333C7.29171 6.17851 7.01189 6.45833 6.66671 6.45833C6.32153 6.45833 6.04171 6.17851 6.04171 5.83333V2.5C6.04171 2.15482 6.32153 1.875 6.66671 1.875Z" fill="#111827"/>
<path fill-rule="evenodd" clip-rule="evenodd" d="M2.70837 9.16667C2.70837 8.82149 2.9882 8.54167 3.33337 8.54167H16.6667C17.0119 8.54167 17.2917 8.82149 17.2917 9.16667C17.2917 9.51184 17.0119 9.79167 16.6667 9.79167H3.33337C2.9882 9.79167 2.70837 9.51184 2.70837 9.16667Z" fill="#111827"/>
<path fill-rule="evenodd" clip-rule="evenodd" d="M8.33337 12.5C8.33337 12.0398 8.70647 11.6667 9.16671 11.6667H10C10.4603 11.6667 10.8334 12.0398 10.8334 12.5C10.8334 12.9602 10.4603 13.3333 10 13.3333H9.16671C8.70647 13.3333 8.33337 12.9602 8.33337 12.5Z" fill="#111827"/>
<path fill-rule="evenodd" clip-rule="evenodd" d="M10 11.875C10.3452 11.875 10.625 12.1548 10.625 12.5V15C10.625 15.3452 10.3452 15.625 10 15.625C9.65486 15.625 9.37504 15.3452 9.37504 15V12.5C9.37504 12.1548 9.65486 11.875 10 11.875Z" fill="#111827"/>
</svg>
