<svg width="20" height="20" viewBox="0 0 20 20" fill="none" xmlns="http://www.w3.org/2000/svg">
<path d="M13.75 5.51001H17.5V7.01001H16V16.76C16 16.9589 15.921 17.1497 15.7803 17.2903C15.6397 17.431 15.4489 17.51 15.25 17.51H4.75C4.55109 17.51 4.36032 17.431 4.21967 17.2903C4.07902 17.1497 4 16.9589 4 16.76V7.01001H2.5V5.51001H6.25V3.26001C6.25 3.0611 6.32902 2.87033 6.46967 2.72968C6.61032 2.58903 6.80109 2.51001 7 2.51001H13C13.1989 2.51001 13.3897 2.58903 13.5303 2.72968C13.671 2.87033 13.75 3.0611 13.75 3.26001V5.51001ZM14.5 7.01001H5.5V16.01H14.5V7.01001ZM7.75 9.26001H9.25V13.76H7.75V9.26001ZM10.75 9.26001H12.25V13.76H10.75V9.26001ZM7.75 4.01001V5.51001H12.25V4.01001H7.75Z" fill="#525866"/>
</svg>
