<svg width="25" height="25" viewBox="0 0 25 25" fill="none" xmlns="http://www.w3.org/2000/svg">
<path d="M9.26074 14.03C8.96774 13.737 8.96774 13.262 9.26074 12.969C9.55374 12.676 10.0288 12.676 10.3218 12.969L12.0417 14.689V3.5C12.0417 3.086 12.3777 2.75 12.7917 2.75C13.2057 2.75 13.5417 3.086 13.5417 3.5V14.689L15.2617 12.969C15.5547 12.676 16.0298 12.676 16.3228 12.969C16.6158 13.262 16.6158 13.737 16.3228 14.03L13.3228 17.03C13.2538 17.099 13.1709 17.154 13.0789 17.192C12.9869 17.23 12.8897 17.25 12.7917 17.25C12.6937 17.25 12.5969 17.23 12.5049 17.192C12.4129 17.154 12.3297 17.099 12.2607 17.03L9.26074 14.03ZM18.7908 9.75C18.3768 9.75 18.0408 10.086 18.0408 10.5C18.0408 10.914 18.3768 11.25 18.7908 11.25C20.3678 11.25 21.0408 11.923 21.0408 13.5V18.5C21.0408 20.077 20.3678 20.75 18.7908 20.75H6.79077C5.21377 20.75 4.54077 20.077 4.54077 18.5V13.5C4.54077 11.923 5.21377 11.25 6.79077 11.25C7.20477 11.25 7.54077 10.914 7.54077 10.5C7.54077 10.086 7.20477 9.75 6.79077 9.75C4.37277 9.75 3.04077 11.082 3.04077 13.5V18.5C3.04077 20.918 4.37277 22.25 6.79077 22.25H18.7908C21.2088 22.25 22.5408 20.918 22.5408 18.5V13.5C22.5408 11.082 21.2088 9.75 18.7908 9.75Z" fill="#25314C"/>
</svg>
