<svg width="160" height="50" viewBox="0 0 160 50" fill="none" xmlns="http://www.w3.org/2000/svg">
<rect width="160" height="50" rx="8" fill="white"/>
<path fill-rule="evenodd" clip-rule="evenodd" d="M72.4303 10.9075C72.283 11.0505 72.1053 11.122 71.8973 11.122C71.6806 11.122 71.5008 11.0505 71.3578 10.9075C71.2148 10.7645 71.1433 10.5847 71.1433 10.368C71.1433 10.16 71.2148 9.98668 71.3578 9.84801C71.5008 9.70935 71.6806 9.64001 71.8973 9.64001C72.1053 9.64001 72.283 9.70935 72.4303 9.84801C72.5776 9.98668 72.6513 10.16 72.6513 10.368C72.6513 10.5847 72.5776 10.7645 72.4303 10.9075ZM50.8748 19.156C51.6635 19.156 52.2962 19.013 52.7728 18.727C53.2495 18.441 53.6525 18.0337 53.9818 17.505L54.0728 19H55.0738V14.138H51.3298V14.996H53.9558C53.8865 15.984 53.6048 16.7618 53.1108 17.3295C52.6168 17.8972 51.8845 18.181 50.9138 18.181C50.2812 18.181 49.7265 18.0315 49.2498 17.7325C48.7732 17.4335 48.4005 17.0067 48.1318 16.452C47.8632 15.8973 47.7288 15.2343 47.7288 14.463C47.7288 13.6917 47.8653 13.0287 48.1383 12.474C48.4113 11.9193 48.7948 11.4925 49.2888 11.1935C49.7828 10.8945 50.3635 10.745 51.0308 10.745C51.7415 10.745 52.3243 10.9053 52.7793 11.226C53.2343 11.5467 53.5225 11.98 53.6438 12.526H54.9048C54.7055 11.6593 54.2657 10.979 53.5853 10.485C52.905 9.99101 52.0535 9.74401 51.0308 9.74401C50.1295 9.74401 49.3473 9.94335 48.6843 10.342C48.0213 10.7407 47.51 11.2953 47.1503 12.006C46.7907 12.7167 46.6108 13.5357 46.6108 14.463C46.6108 15.3903 46.7885 16.2072 47.1438 16.9135C47.4992 17.6198 47.9975 18.1702 48.6388 18.5645C49.2802 18.9588 50.0255 19.156 50.8748 19.156ZM59.348 19.156C60.1106 19.156 60.7368 18.9588 61.2265 18.5645C61.7161 18.1702 62.0476 17.674 62.221 17.076H61.142C61.0033 17.4313 60.7823 17.713 60.479 17.921C60.1756 18.129 59.7986 18.233 59.348 18.233C59.0013 18.233 58.6741 18.1507 58.3665 17.986C58.0588 17.8213 57.8031 17.5765 57.5995 17.2515C57.3958 16.9265 57.281 16.517 57.255 16.023H62.39C62.39 15.9017 62.3921 15.7933 62.3965 15.698C62.4008 15.6027 62.403 15.5073 62.403 15.412C62.403 14.8833 62.2816 14.3893 62.039 13.93C61.7963 13.4707 61.4475 13.1002 60.9925 12.8185C60.5375 12.5368 59.998 12.396 59.374 12.396C58.7413 12.396 58.1845 12.5368 57.7035 12.8185C57.2225 13.1002 56.8476 13.4945 56.579 14.0015C56.3103 14.5085 56.176 15.1 56.176 15.776C56.176 16.4607 56.3125 17.0543 56.5855 17.557C56.8585 18.0597 57.2333 18.4518 57.71 18.7335C58.1866 19.0152 58.7326 19.156 59.348 19.156ZM57.268 15.178H61.324C61.298 14.5973 61.0986 14.1423 60.726 13.813C60.3533 13.4837 59.894 13.319 59.348 13.319C58.828 13.319 58.3665 13.4772 57.9635 13.7935C57.5605 14.1098 57.3286 14.5713 57.268 15.178ZM66.8721 19V18.064H66.1961C65.7801 18.064 65.4897 17.9925 65.3251 17.8495C65.1604 17.7065 65.0781 17.4313 65.0781 17.024V13.475H66.9761V12.552H65.0781V11.005H64.1291L63.9861 12.552H62.8681V13.475H63.9861V17.024C63.9861 17.7693 64.1551 18.285 64.4931 18.571C64.8311 18.857 65.2947 19 65.8841 19H66.8721ZM72.4433 19V12.552H71.3513V19H72.4433ZM77.5884 18.064V19H76.6004C76.0111 19 75.5474 18.857 75.2094 18.571C74.8714 18.285 74.7024 17.7693 74.7024 17.024V13.475H73.5844V12.552H74.7024L74.8454 11.005H75.7944V12.552H77.6924V13.475H75.7944V17.024C75.7944 17.4313 75.8767 17.7065 76.0414 17.8495C76.2061 17.9925 76.4964 18.064 76.9124 18.064H77.5884ZM84.8886 19.156C85.4953 19.156 86.0434 19.0173 86.5331 18.74C87.0228 18.4627 87.4106 18.0705 87.6966 17.5635C87.9826 17.0565 88.1256 16.4607 88.1256 15.776C88.1256 15.0913 87.9848 14.4955 87.7031 13.9885C87.4214 13.4815 87.0379 13.0893 86.5526 12.812C86.0673 12.5347 85.5213 12.396 84.9146 12.396C84.3079 12.396 83.7598 12.5347 83.2701 12.812C82.7804 13.0893 82.3926 13.4815 82.1066 13.9885C81.8206 14.4955 81.6776 15.0913 81.6776 15.776C81.6776 16.4607 81.8185 17.0565 82.1001 17.5635C82.3818 18.0705 82.7653 18.4627 83.2506 18.74C83.736 19.0173 84.2819 19.156 84.8886 19.156ZM83.8681 17.947C84.1844 18.129 84.5246 18.22 84.8886 18.22C85.2613 18.22 85.6079 18.129 85.9286 17.947C86.2493 17.765 86.5093 17.492 86.7086 17.128C86.908 16.764 87.0076 16.3133 87.0076 15.776C87.0076 15.2387 86.9101 14.788 86.7151 14.424C86.5201 14.06 86.2623 13.787 85.9416 13.605C85.6209 13.423 85.2786 13.332 84.9146 13.332C84.542 13.332 84.1953 13.423 83.8746 13.605C83.554 13.787 83.2939 14.06 83.0946 14.424C82.8953 14.788 82.7956 15.2387 82.7956 15.776C82.7956 16.3133 82.8953 16.764 83.0946 17.128C83.2939 17.492 83.5518 17.765 83.8681 17.947ZM90.4497 19V15.659C90.4497 14.9137 90.6339 14.3395 91.0022 13.9365C91.3706 13.5335 91.8321 13.332 92.3867 13.332C93.4961 13.332 94.0507 14.0037 94.0507 15.347V19H95.1427V15.23C95.1427 14.268 94.9152 13.5552 94.4602 13.0915C94.0052 12.6278 93.3964 12.396 92.6337 12.396C92.1397 12.396 91.6977 12.513 91.3077 12.747C90.9177 12.981 90.6187 13.3017 90.4107 13.709L90.3457 12.552H89.3577V19H90.4497ZM89.8957 39V26.76H88.0937V39H89.8957ZM54.7208 38.694C54.1202 39.034 53.3382 39.204 52.3748 39.204C51.2528 39.204 50.2725 38.949 49.4338 38.439C48.5952 37.929 47.9435 37.215 47.4788 36.297C47.0142 35.379 46.7818 34.308 46.7818 33.084C46.7818 31.8713 47.0198 30.8003 47.4958 29.871C47.9718 28.9417 48.649 28.2135 49.5273 27.6865C50.4057 27.1595 51.4455 26.896 52.6468 26.896C54.0068 26.896 55.1402 27.2247 56.0468 27.882C56.9535 28.5393 57.5428 29.446 57.8148 30.602H55.7748C55.5935 29.9673 55.2365 29.4687 54.7038 29.106C54.1712 28.7433 53.4855 28.562 52.6468 28.562C51.4002 28.562 50.4198 28.9643 49.7058 29.769C48.9918 30.5737 48.6348 31.6843 48.6348 33.101C48.6348 34.5177 48.9862 35.6227 49.6888 36.416C50.3915 37.2094 51.3265 37.606 52.4938 37.606C53.6725 37.606 54.5593 37.2717 55.1543 36.603C55.7493 35.9343 56.0978 35.0447 56.1998 33.934H52.9698V32.54H58.0188V39H56.3698L56.2168 37.249C55.8202 37.8723 55.3215 38.354 54.7208 38.694ZM65.8861 38.6515C65.2401 39.0198 64.5147 39.204 63.7101 39.204C62.9054 39.204 62.1829 39.0198 61.5426 38.6515C60.9022 38.2832 60.3951 37.7675 60.0211 37.1045C59.6471 36.4415 59.4601 35.668 59.4601 34.784C59.4601 33.9 59.6499 33.1265 60.0296 32.4635C60.4092 31.8005 60.9221 31.2848 61.5681 30.9165C62.2141 30.5482 62.9337 30.364 63.7271 30.364C64.5317 30.364 65.2542 30.5482 65.8946 30.9165C66.5349 31.2848 67.0449 31.8005 67.4246 32.4635C67.8042 33.1265 67.9941 33.9 67.9941 34.784C67.9941 35.668 67.8042 36.4415 67.4246 37.1045C67.0449 37.7675 66.5321 38.2832 65.8861 38.6515ZM63.7101 37.657C63.2794 37.657 62.8827 37.5493 62.5201 37.334C62.1574 37.1187 61.8627 36.7985 61.6361 36.3735C61.4094 35.9485 61.2961 35.4187 61.2961 34.784C61.2961 34.1493 61.4094 33.6195 61.6361 33.1945C61.8627 32.7695 62.1602 32.4493 62.5286 32.234C62.8969 32.0187 63.2964 31.911 63.7271 31.911C64.1577 31.911 64.5572 32.0187 64.9256 32.234C65.2939 32.4493 65.5886 32.7695 65.8096 33.1945C66.0306 33.6195 66.1411 34.1493 66.1411 34.784C66.1411 35.4187 66.0277 35.9485 65.8011 36.3735C65.5744 36.7985 65.2769 37.1187 64.9086 37.334C64.5402 37.5493 64.1407 37.657 63.7101 37.657ZM75.6913 38.6515C75.0453 39.0198 74.32 39.204 73.5153 39.204C72.7106 39.204 71.9881 39.0198 71.3478 38.6515C70.7075 38.2832 70.2003 37.7675 69.8263 37.1045C69.4523 36.4415 69.2653 35.668 69.2653 34.784C69.2653 33.9 69.4551 33.1265 69.8348 32.4635C70.2145 31.8005 70.7273 31.2848 71.3733 30.9165C72.0193 30.5482 72.739 30.364 73.5323 30.364C74.337 30.364 75.0595 30.5482 75.6998 30.9165C76.3401 31.2848 76.8501 31.8005 77.2298 32.4635C77.6094 33.1265 77.7993 33.9 77.7993 34.784C77.7993 35.668 77.6094 36.4415 77.2298 37.1045C76.8501 37.7675 76.3373 38.2832 75.6913 38.6515ZM73.5153 37.657C73.0846 37.657 72.688 37.5493 72.3253 37.334C71.9626 37.1187 71.668 36.7985 71.4413 36.3735C71.2146 35.9485 71.1013 35.4187 71.1013 34.784C71.1013 34.1493 71.2146 33.6195 71.4413 33.1945C71.668 32.7695 71.9655 32.4493 72.3338 32.234C72.7021 32.0187 73.1016 31.911 73.5323 31.911C73.9629 31.911 74.3625 32.0187 74.7308 32.234C75.0991 32.4493 75.3938 32.7695 75.6148 33.1945C75.8358 33.6195 75.9463 34.1493 75.9463 34.784C75.9463 35.4187 75.833 35.9485 75.6063 36.3735C75.3796 36.7985 75.0821 37.1187 74.7138 37.334C74.3455 37.5493 73.946 37.657 73.5153 37.657ZM84.536 42.5275C83.975 42.8052 83.2582 42.944 82.3855 42.944C81.2068 42.944 80.252 42.7202 79.521 42.2725C78.79 41.8248 78.4245 41.1477 78.4245 40.241C78.4245 39.8897 78.518 39.5412 78.705 39.1955C78.892 38.8498 79.1895 38.524 79.5975 38.218C79.3595 38.116 79.1527 38.0055 78.977 37.8865C78.8013 37.7675 78.6455 37.6457 78.5095 37.521V37.113L79.9715 35.617C79.3142 35.0503 78.9855 34.308 78.9855 33.39C78.9855 32.8347 79.1187 32.3275 79.385 31.8685C79.6513 31.4095 80.0395 31.044 80.5495 30.772C81.0595 30.5 81.6715 30.364 82.3855 30.364C82.8615 30.364 83.3035 30.432 83.7115 30.568H86.8565V31.758L85.3605 31.843C85.6325 32.3077 85.7685 32.8233 85.7685 33.39C85.7685 33.9567 85.6353 34.4667 85.369 34.92C85.1027 35.3733 84.7173 35.736 84.213 36.008C83.7087 36.28 83.0995 36.416 82.3855 36.416C81.9435 36.416 81.5355 36.365 81.1615 36.263L80.4305 36.977C80.5552 37.0563 80.7082 37.1243 80.8895 37.181C81.0708 37.2377 81.3258 37.2887 81.6545 37.334C81.9832 37.3793 82.4308 37.4247 82.9975 37.47C84.1195 37.572 84.9298 37.8412 85.4285 38.2775C85.9272 38.7138 86.1765 39.2947 86.1765 40.02C86.1765 40.5187 86.0433 40.9918 85.777 41.4395C85.5107 41.8872 85.097 42.2498 84.536 42.5275ZM82.3855 35.005C81.8528 35.005 81.425 34.8662 81.102 34.5885C80.779 34.3108 80.6175 33.917 80.6175 33.407C80.6175 32.8857 80.779 32.489 81.102 32.217C81.425 31.945 81.8528 31.809 82.3855 31.809C82.9068 31.809 83.329 31.945 83.652 32.217C83.975 32.489 84.1365 32.8857 84.1365 33.407C84.1365 33.917 83.975 34.3108 83.652 34.5885C83.329 34.8662 82.9068 35.005 82.3855 35.005ZM80.7705 41.1675C81.2012 41.4112 81.7395 41.533 82.3855 41.533C83.0088 41.533 83.5132 41.3998 83.8985 41.1335C84.2838 40.8672 84.4765 40.513 84.4765 40.071C84.4765 39.7423 84.3462 39.4618 84.0855 39.2295C83.8248 38.9972 83.3318 38.8527 82.6065 38.796C82.0625 38.762 81.5808 38.711 81.1615 38.643C80.7648 38.8583 80.4928 39.0907 80.3455 39.34C80.1982 39.5893 80.1245 39.833 80.1245 40.071C80.1245 40.5583 80.3398 40.9238 80.7705 41.1675ZM98.2475 38.405C97.5731 38.9377 96.7373 39.204 95.74 39.204C94.9126 39.204 94.1788 39.0198 93.5385 38.6515C92.8981 38.2832 92.3966 37.7703 92.034 37.113C91.6713 36.4557 91.49 35.6907 91.49 34.818C91.49 33.934 91.6685 33.1577 92.0255 32.489C92.3825 31.8203 92.8811 31.299 93.5215 30.925C94.1618 30.551 94.907 30.364 95.757 30.364C96.5843 30.364 97.304 30.5482 97.916 30.9165C98.528 31.2848 99.004 31.775 99.344 32.387C99.684 32.999 99.854 33.6733 99.854 34.41C99.854 34.5233 99.8511 34.6452 99.8455 34.7755C99.8398 34.9058 99.8313 35.0503 99.82 35.209H93.258C93.3146 36.025 93.5838 36.6455 94.0655 37.0705C94.5471 37.4955 95.1053 37.708 95.74 37.708C96.25 37.708 96.6778 37.5919 97.0235 37.3595C97.3691 37.1272 97.627 36.8127 97.797 36.416H99.599C99.3723 37.2093 98.9218 37.8723 98.2475 38.405ZM98.052 33.985H93.292C93.394 33.271 93.6773 32.7355 94.142 32.3785C94.6066 32.0215 95.1393 31.843 95.74 31.843C96.386 31.843 96.9243 32.0357 97.355 32.421C97.7856 32.8063 98.018 33.3277 98.052 33.985ZM109.485 34.206H107.122V39H105.32V27.1H109.485C110.415 27.1 111.185 27.2558 111.797 27.5675C112.409 27.8792 112.866 28.3042 113.166 28.8425C113.466 29.3808 113.616 29.99 113.616 30.67C113.616 31.316 113.472 31.9082 113.183 32.4465C112.894 32.9848 112.443 33.4127 111.831 33.73C111.219 34.0473 110.437 34.206 109.485 34.206ZM109.4 32.727H107.122V28.579H109.4C110.25 28.579 110.86 28.7632 111.228 29.1315C111.596 29.4998 111.78 30.0127 111.78 30.67C111.78 31.3047 111.596 31.8062 111.228 32.1745C110.86 32.5428 110.25 32.727 109.4 32.727ZM116.758 26.76V39H114.956V26.76H116.758ZM121.514 39.204C122.251 39.204 122.846 39.0453 123.299 38.728C123.752 38.4107 124.098 38.0197 124.336 37.555L124.489 39H126.053V33.815C126.053 32.7497 125.73 31.9082 125.084 31.2905C124.438 30.6728 123.526 30.364 122.347 30.364C121.689 30.364 121.086 30.4802 120.536 30.7125C119.987 30.9448 119.533 31.2792 119.176 31.7155C118.819 32.1518 118.613 32.676 118.556 33.288H120.358C120.437 32.812 120.661 32.4522 121.029 32.2085C121.398 31.9648 121.831 31.843 122.33 31.843C122.896 31.843 123.358 32.0073 123.715 32.336C124.072 32.6647 124.251 33.1577 124.251 33.815V33.968H122.041C120.862 33.968 119.956 34.206 119.321 34.682C118.686 35.158 118.369 35.804 118.369 36.62C118.369 37.0847 118.482 37.5125 118.709 37.9035C118.936 38.2945 119.281 38.609 119.746 38.847C120.211 39.085 120.8 39.204 121.514 39.204ZM120.689 37.4105C120.978 37.6315 121.372 37.742 121.871 37.742C122.358 37.742 122.769 37.6258 123.103 37.3935C123.438 37.1612 123.698 36.8523 123.885 36.467C124.072 36.0817 124.188 35.6567 124.234 35.192H122.228C121.514 35.192 121.007 35.3167 120.706 35.566C120.406 35.8153 120.256 36.127 120.256 36.501C120.256 36.8863 120.4 37.1895 120.689 37.4105ZM130.401 42.74L135.841 30.568H133.937L131.234 36.807L128.65 30.568H126.695L130.027 38.303H130.52L128.497 42.74H130.401Z" fill="#171717"/>
<g clip-path="url(#clip0_101_2920)">
<path fill-rule="evenodd" clip-rule="evenodd" d="M17.4639 15.1188L26.913 25.0147L17.5093 34.9968C17.2349 34.8143 17.0877 34.4182 17.0853 33.9064C17.0805 32.9257 17.0057 17.3573 17 16.1893C16.9974 15.629 17.1917 15.2871 17.4639 15.1188ZM30.0292 21.7072L18.5389 15.1323C18.4162 15.0619 18.2768 15.0191 18.138 15L27.304 24.5997L30.0292 21.7072ZM30.5397 27.9886L27.6973 25.0119L30.5369 21.9979L34.4472 24.235C35.4105 24.7859 34.9178 25.4752 34.4472 25.7454L30.5397 27.9886ZM18.2882 35C18.3683 34.9684 18.452 34.9281 18.5388 34.8783L30.0314 28.2804L27.3067 25.4269L18.2882 35Z" fill="#171717"/>
</g>
<defs>
<clipPath id="clip0_101_2920">
<rect width="24" height="24" fill="white" transform="translate(14 13)"/>
</clipPath>
</defs>
</svg>
