<svg width="330" height="116" viewBox="0 0 330 116" fill="none" xmlns="http://www.w3.org/2000/svg">
<path d="M58.75 115L57.0454 99.5455L73.0681 94.0909L80.4545 107.614L58.75 115Z" fill="#777777" stroke="#777777"/>
<mask id="path-2-inside-1_66_792" fill="white">
<path d="M99.9385 47.5204C100.363 56.0755 98.5831 64.5963 94.7687 72.2657C90.9543 79.9352 85.2336 86.4961 78.155 91.3194C71.0765 96.1427 62.8776 99.0666 54.3443 99.8109C45.8111 100.555 37.2298 99.0947 29.4231 95.5696L29.8312 94.6658C37.483 98.121 45.8942 99.5524 54.2582 98.823C62.6222 98.0935 70.6585 95.2275 77.5966 90.4999C84.5348 85.7722 90.142 79.3414 93.8808 71.8241C97.6195 64.3068 99.3643 55.955 98.948 47.5696L99.9385 47.5204Z"/>
</mask>
<path d="M99.9385 47.5204C100.363 56.0755 98.5831 64.5963 94.7687 72.2657C90.9543 79.9352 85.2336 86.4961 78.155 91.3194C71.0765 96.1427 62.8776 99.0666 54.3443 99.8109C45.8111 100.555 37.2298 99.0947 29.4231 95.5696L29.8312 94.6658C37.483 98.121 45.8942 99.5524 54.2582 98.823C62.6222 98.0935 70.6585 95.2275 77.5966 90.4999C84.5348 85.7722 90.142 79.3414 93.8808 71.8241C97.6195 64.3068 99.3643 55.955 98.948 47.5696L99.9385 47.5204Z" fill="#777777" stroke="#777777" stroke-width="2" mask="url(#path-2-inside-1_66_792)"/>
<circle cx="51.9316" cy="53.75" r="30.1136" fill="url(#paint0_angular_66_792)"/>
<mask id="path-4-inside-2_66_792" fill="white">
<path d="M4.82231 46.7034C2.93563 53.1683 3.00009 60.0465 5.0076 66.4749C7.01511 72.9034 10.8763 78.5958 16.1067 82.8382L22.1734 75.3586C18.4162 72.3111 15.6426 68.2219 14.2005 63.6041C12.7584 58.9863 12.7121 54.0454 14.0674 49.4014L4.82231 46.7034Z"/>
</mask>
<path d="M4.82231 46.7034C2.93563 53.1683 3.00009 60.0465 5.0076 66.4749C7.01511 72.9034 10.8763 78.5958 16.1067 82.8382L22.1734 75.3586C18.4162 72.3111 15.6426 68.2219 14.2005 63.6041C12.7584 58.9863 12.7121 54.0454 14.0674 49.4014L4.82231 46.7034Z" fill="white" stroke="white" stroke-width="2" mask="url(#path-4-inside-2_66_792)"/>
<circle cx="70.4545" cy="10.9091" r="3.18182" fill="#919191"/>
<path d="M130.756 37.0909V32.6364H148.455V37.0909H142.33V53H136.881V37.0909H130.756ZM150.535 53V32.6364H156.064V40.8693H156.342L162.467 32.6364H168.91L162.029 41.7045L169.069 53H162.467L157.893 45.3636L156.064 47.75V53H150.535ZM170.551 32.6364H177.431L182.164 44.1705H182.403L187.136 32.6364H194.017V53H188.608V41.2273H188.449L183.914 52.8409H180.653L176.119 41.1477H175.96V53H170.551V32.6364ZM202.205 32.6364L206.381 46.9943H206.54L210.716 32.6364H216.961L210.239 53H202.682L195.961 32.6364H202.205ZM224.45 32.6364V53H218.922V32.6364H224.45ZM238.048 39C237.995 38.3371 237.746 37.8201 237.302 37.4489C236.864 37.0777 236.198 36.892 235.303 36.892C234.733 36.892 234.266 36.9616 233.901 37.1009C233.543 37.2334 233.278 37.4157 233.106 37.6477C232.933 37.8797 232.844 38.1449 232.837 38.4432C232.824 38.6884 232.867 38.9105 232.967 39.1094C233.073 39.3016 233.238 39.4773 233.464 39.6364C233.689 39.7888 233.978 39.928 234.329 40.054C234.68 40.1799 235.098 40.2926 235.582 40.392L237.252 40.75C238.379 40.9886 239.344 41.3035 240.146 41.6946C240.948 42.0857 241.604 42.5464 242.114 43.0767C242.625 43.6004 242.999 44.1903 243.238 44.8466C243.483 45.5028 243.609 46.2187 243.616 46.9943C243.609 48.3333 243.274 49.4669 242.612 50.3949C241.949 51.3229 241.001 52.0289 239.768 52.5128C238.541 52.9967 237.067 53.2386 235.343 53.2386C233.573 53.2386 232.029 52.9768 230.71 52.4531C229.397 51.9295 228.376 51.1241 227.647 50.0369C226.924 48.9432 226.56 47.5445 226.553 45.8409H231.803C231.836 46.464 231.992 46.9877 232.271 47.4119C232.549 47.8362 232.94 48.1577 233.444 48.3764C233.954 48.5952 234.561 48.7045 235.263 48.7045C235.853 48.7045 236.347 48.6316 236.745 48.4858C237.143 48.34 237.444 48.1378 237.65 47.8793C237.855 47.6207 237.961 47.3258 237.968 46.9943C237.961 46.6828 237.859 46.411 237.66 46.179C237.468 45.9403 237.149 45.7282 236.705 45.5426C236.261 45.3504 235.661 45.1714 234.906 45.0057L232.877 44.5682C231.074 44.1771 229.652 43.5241 228.612 42.6094C227.577 41.688 227.064 40.4318 227.07 38.8409C227.064 37.5483 227.408 36.4181 228.104 35.4503C228.807 34.4759 229.778 33.7169 231.018 33.1733C232.264 32.6297 233.692 32.358 235.303 32.358C236.947 32.358 238.369 32.633 239.569 33.1832C240.769 33.7334 241.693 34.509 242.343 35.5099C242.999 36.5043 243.331 37.6676 243.337 39H238.048ZM250.216 53H244.25L250.971 32.6364H258.528L265.25 53H259.284L254.829 38.2443H254.67L250.216 53ZM249.102 44.9659H260.318V49.1023H249.102V44.9659Z" fill="white"/>
<path d="M130.71 71.9901V69.4545H142.656V71.9901H138.203V84H135.163V71.9901H130.71ZM143.434 84V73.0909H146.367V74.9943H146.481C146.68 74.3172 147.013 73.8059 147.482 73.4602C147.951 73.1098 148.491 72.9347 149.102 72.9347C149.253 72.9347 149.416 72.9441 149.592 72.9631C149.767 72.982 149.921 73.008 150.053 73.0412V75.7259C149.911 75.6832 149.715 75.6454 149.464 75.6122C149.213 75.5791 148.983 75.5625 148.775 75.5625C148.33 75.5625 147.932 75.6596 147.582 75.8537C147.236 76.0431 146.961 76.3082 146.758 76.6491C146.559 76.9901 146.46 77.383 146.46 77.8281V84H143.434ZM154.416 84.206C153.72 84.206 153.1 84.0852 152.555 83.8438C152.011 83.5975 151.58 83.2353 151.262 82.7571C150.95 82.2741 150.794 81.6728 150.794 80.9531C150.794 80.3471 150.905 79.8381 151.127 79.4261C151.35 79.0142 151.653 78.6828 152.037 78.4318C152.42 78.1809 152.856 77.9915 153.343 77.8636C153.836 77.7358 154.352 77.6458 154.892 77.5938C155.526 77.5275 156.038 77.4659 156.426 77.4091C156.814 77.3475 157.096 77.2576 157.271 77.1392C157.446 77.0208 157.534 76.8456 157.534 76.6136V76.571C157.534 76.1212 157.392 75.7732 157.108 75.527C156.828 75.2808 156.431 75.1577 155.914 75.1577C155.37 75.1577 154.937 75.2784 154.615 75.5199C154.293 75.7566 154.08 76.0549 153.975 76.4148L151.177 76.1875C151.319 75.5246 151.599 74.9517 152.015 74.4688C152.432 73.9811 152.969 73.607 153.627 73.3466C154.29 73.0814 155.057 72.9489 155.929 72.9489C156.535 72.9489 157.115 73.0199 157.669 73.1619C158.227 73.304 158.722 73.5241 159.153 73.8224C159.589 74.1207 159.932 74.5043 160.183 74.973C160.434 75.437 160.559 75.9934 160.559 76.642V84H157.69V82.4872H157.605C157.43 82.8281 157.195 83.1288 156.902 83.3892C156.608 83.6449 156.255 83.8461 155.843 83.9929C155.431 84.1349 154.956 84.206 154.416 84.206ZM155.282 82.1179C155.727 82.1179 156.12 82.0303 156.461 81.8551C156.802 81.6752 157.07 81.4337 157.264 81.1307C157.458 80.8277 157.555 80.4844 157.555 80.1009V78.9432C157.46 79.0047 157.33 79.0616 157.164 79.1136C157.003 79.161 156.821 79.206 156.618 79.2486C156.414 79.2865 156.21 79.322 156.007 79.3551C155.803 79.3835 155.618 79.4096 155.453 79.4332C155.098 79.4853 154.788 79.5682 154.522 79.6818C154.257 79.7955 154.051 79.9493 153.904 80.1435C153.758 80.3329 153.684 80.5696 153.684 80.8537C153.684 81.2656 153.833 81.5805 154.132 81.7983C154.435 82.0114 154.818 82.1179 155.282 82.1179ZM172.686 73.0909L168.873 84H165.463L161.65 73.0909H164.846L167.111 80.8963H167.225L169.483 73.0909H172.686ZM178.855 84.2131C177.733 84.2131 176.767 83.9858 175.957 83.5312C175.152 83.072 174.532 82.4233 174.096 81.5852C173.661 80.7424 173.443 79.7457 173.443 78.5952C173.443 77.473 173.661 76.4882 174.096 75.6406C174.532 74.7931 175.145 74.1326 175.936 73.6591C176.731 73.1856 177.664 72.9489 178.734 72.9489C179.454 72.9489 180.124 73.0649 180.744 73.2969C181.369 73.5241 181.913 73.8674 182.377 74.3267C182.846 74.786 183.211 75.3636 183.471 76.0597C183.732 76.7509 183.862 77.5606 183.862 78.4886V79.3196H174.65V77.4446H181.014C181.014 77.009 180.919 76.6231 180.73 76.2869C180.54 75.9508 180.278 75.688 179.941 75.4986C179.61 75.3045 179.224 75.2074 178.784 75.2074C178.324 75.2074 177.917 75.3139 177.562 75.527C177.212 75.7353 176.937 76.017 176.738 76.3722C176.539 76.7225 176.438 77.1132 176.433 77.544V79.3267C176.433 79.8665 176.532 80.3329 176.731 80.7259C176.935 81.1188 177.221 81.4219 177.591 81.6349C177.96 81.848 178.398 81.9545 178.904 81.9545C179.241 81.9545 179.548 81.9072 179.828 81.8125C180.107 81.7178 180.346 81.5758 180.545 81.3864C180.744 81.197 180.895 80.965 181 80.6903L183.798 80.875C183.656 81.5473 183.365 82.1345 182.924 82.6364C182.489 83.1335 181.925 83.5218 181.234 83.8011C180.547 84.0758 179.754 84.2131 178.855 84.2131ZM188.862 69.4545V84H185.836V69.4545H188.862ZM195.746 84.2131C194.742 84.2131 193.875 84.0331 193.146 83.6733C192.417 83.3134 191.856 82.8258 191.463 82.2102C191.075 81.59 190.881 80.8987 190.881 80.1364C190.881 79.5682 190.994 79.0639 191.222 78.6236C191.449 78.1832 191.766 77.7784 192.173 77.4091C192.58 77.035 193.054 76.6634 193.594 76.294L196.413 74.4403C196.778 74.2083 197.045 73.9645 197.216 73.7088C197.386 73.4484 197.472 73.1667 197.472 72.8636C197.472 72.5748 197.356 72.3073 197.124 72.0611C196.892 71.8149 196.562 71.6941 196.136 71.6989C195.852 71.6989 195.606 71.7628 195.398 71.8906C195.189 72.0137 195.026 72.1771 194.908 72.3807C194.794 72.5795 194.737 72.8021 194.737 73.0483C194.737 73.3513 194.822 73.6591 194.993 73.9716C195.163 74.2841 195.391 74.6155 195.675 74.9659C195.959 75.3116 196.269 75.6856 196.605 76.0881L203.501 84H200.348L194.595 77.5938C194.216 77.1629 193.838 76.7131 193.459 76.2443C193.085 75.7708 192.772 75.2689 192.521 74.7386C192.27 74.2036 192.145 73.6236 192.145 72.9986C192.145 72.2931 192.308 71.6586 192.635 71.0952C192.966 70.5317 193.43 70.0866 194.027 69.7599C194.624 69.4285 195.32 69.2628 196.115 69.2628C196.892 69.2628 197.562 69.4214 198.125 69.7386C198.693 70.0511 199.129 70.4678 199.432 70.9886C199.74 71.5047 199.893 72.0729 199.893 72.6932C199.893 73.3797 199.723 74.0024 199.382 74.5611C199.046 75.1151 198.572 75.6122 197.962 76.0526L194.993 78.1903C194.59 78.4839 194.292 78.7846 194.098 79.0923C193.909 79.3954 193.814 79.6866 193.814 79.9659C193.814 80.3116 193.899 80.6217 194.07 80.8963C194.24 81.1709 194.482 81.3887 194.794 81.5497C195.107 81.706 195.473 81.7841 195.895 81.7841C196.406 81.7841 196.911 81.6681 197.408 81.4361C197.91 81.1993 198.364 80.8655 198.771 80.4347C199.183 79.9991 199.512 79.483 199.759 78.8864C200.005 78.2898 200.128 77.6293 200.128 76.9048H202.635C202.635 77.795 202.538 78.5975 202.344 79.3125C202.15 80.0227 201.88 80.643 201.534 81.1733C201.188 81.6989 200.793 82.1297 200.348 82.4659C200.206 82.5559 200.069 82.6411 199.936 82.7216C199.804 82.8021 199.666 82.8873 199.524 82.9773C198.984 83.4129 198.381 83.7277 197.713 83.9219C197.05 84.116 196.394 84.2131 195.746 84.2131ZM208.894 71.9901V69.4545H220.84V71.9901H216.387V84H213.347V71.9901H208.894ZM226.097 84.2131C224.994 84.2131 224.04 83.9787 223.235 83.5099C222.435 83.0365 221.817 82.3783 221.381 81.5355C220.946 80.688 220.728 79.7055 220.728 78.5881C220.728 77.4612 220.946 76.4763 221.381 75.6335C221.817 74.786 222.435 74.1278 223.235 73.6591C224.04 73.1856 224.994 72.9489 226.097 72.9489C227.201 72.9489 228.152 73.1856 228.952 73.6591C229.757 74.1278 230.378 74.786 230.813 75.6335C231.249 76.4763 231.467 77.4612 231.467 78.5881C231.467 79.7055 231.249 80.688 230.813 81.5355C230.378 82.3783 229.757 83.0365 228.952 83.5099C228.152 83.9787 227.201 84.2131 226.097 84.2131ZM226.112 81.8693C226.613 81.8693 227.032 81.7273 227.369 81.4432C227.705 81.1544 227.958 80.7614 228.129 80.2642C228.304 79.767 228.391 79.2012 228.391 78.5668C228.391 77.9323 228.304 77.3665 228.129 76.8693C227.958 76.3722 227.705 75.9792 227.369 75.6903C227.032 75.4015 226.613 75.2571 226.112 75.2571C225.605 75.2571 225.179 75.4015 224.833 75.6903C224.492 75.9792 224.234 76.3722 224.059 76.8693C223.888 77.3665 223.803 77.9323 223.803 78.5668C223.803 79.2012 223.888 79.767 224.059 80.2642C224.234 80.7614 224.492 81.1544 224.833 81.4432C225.179 81.7273 225.605 81.8693 226.112 81.8693ZM240.43 79.3551V73.0909H243.455V84H240.55V82.0185H240.437C240.191 82.6577 239.781 83.1714 239.208 83.5597C238.64 83.9479 237.946 84.142 237.127 84.142C236.398 84.142 235.756 83.9763 235.202 83.6449C234.648 83.3134 234.215 82.8423 233.903 82.2315C233.595 81.6207 233.439 80.8892 233.434 80.0369V73.0909H236.46V79.4972C236.464 80.1411 236.637 80.6501 236.978 81.0241C237.319 81.3982 237.776 81.5852 238.349 81.5852C238.713 81.5852 239.054 81.5024 239.371 81.3366C239.689 81.1662 239.944 80.9152 240.138 80.5838C240.337 80.2524 240.434 79.8428 240.43 79.3551ZM245.875 84V73.0909H248.809V74.9943H248.922C249.121 74.3172 249.455 73.8059 249.924 73.4602C250.392 73.1098 250.932 72.9347 251.543 72.9347C251.694 72.9347 251.858 72.9441 252.033 72.9631C252.208 72.982 252.362 73.008 252.495 73.0412V75.7259C252.353 75.6832 252.156 75.6454 251.905 75.6122C251.654 75.5791 251.425 75.5625 251.216 75.5625C250.771 75.5625 250.373 75.6596 250.023 75.8537C249.677 76.0431 249.403 76.3082 249.199 76.6491C249 76.9901 248.901 77.383 248.901 77.8281V84H245.875ZM254.059 84V73.0909H257.085V84H254.059ZM255.579 71.6847C255.129 71.6847 254.743 71.5355 254.421 71.2372C254.104 70.9342 253.945 70.572 253.945 70.1506C253.945 69.7339 254.104 69.3764 254.421 69.0781C254.743 68.7751 255.129 68.6236 255.579 68.6236C256.029 68.6236 256.412 68.7751 256.729 69.0781C257.051 69.3764 257.212 69.7339 257.212 70.1506C257.212 70.572 257.051 70.9342 256.729 71.2372C256.412 71.5355 256.029 71.6847 255.579 71.6847ZM268.585 76.2017L265.815 76.3722C265.768 76.1354 265.666 75.9223 265.51 75.733C265.353 75.5388 265.147 75.3849 264.892 75.2713C264.641 75.1529 264.34 75.0938 263.99 75.0938C263.521 75.0938 263.126 75.1932 262.804 75.392C262.482 75.5862 262.321 75.8466 262.321 76.1733C262.321 76.4337 262.425 76.6539 262.633 76.8338C262.842 77.0137 263.199 77.1581 263.706 77.267L265.68 77.6648C266.741 77.8826 267.531 78.233 268.052 78.7159C268.573 79.1989 268.833 79.8333 268.833 80.6193C268.833 81.3343 268.623 81.9616 268.201 82.5014C267.785 83.0412 267.212 83.4626 266.483 83.7656C265.758 84.0639 264.922 84.2131 263.975 84.2131C262.531 84.2131 261.381 83.9124 260.524 83.3111C259.672 82.705 259.172 81.8812 259.025 80.8395L262.001 80.6832C262.091 81.1236 262.309 81.4598 262.654 81.6918C263 81.919 263.443 82.0327 263.983 82.0327C264.513 82.0327 264.939 81.9309 265.261 81.7273C265.588 81.5189 265.753 81.2514 265.758 80.9247C265.753 80.6501 265.637 80.4252 265.41 80.25C265.183 80.0701 264.833 79.9328 264.359 79.8381L262.47 79.4616C261.404 79.2486 260.611 78.8793 260.091 78.3537C259.574 77.8281 259.316 77.1581 259.316 76.3438C259.316 75.643 259.506 75.0393 259.885 74.5327C260.268 74.026 260.806 73.6354 261.497 73.3608C262.193 73.0862 263.007 72.9489 263.94 72.9489C265.318 72.9489 266.402 73.2401 267.193 73.8224C267.988 74.4048 268.452 75.1979 268.585 76.2017ZM270.739 84V73.0909H273.622V75.0156H273.75C273.977 74.3764 274.356 73.8722 274.886 73.5028C275.417 73.1335 276.051 72.9489 276.79 72.9489C277.538 72.9489 278.175 73.1359 278.7 73.5099C279.226 73.8793 279.576 74.3812 279.751 75.0156H279.865C280.088 74.3906 280.49 73.8911 281.072 73.517C281.66 73.1383 282.353 72.9489 283.153 72.9489C284.171 72.9489 284.998 73.2732 285.632 73.9219C286.271 74.5658 286.591 75.4796 286.591 76.6634V84H283.572V77.2599C283.572 76.6539 283.411 76.1993 283.089 75.8963C282.768 75.5933 282.365 75.4418 281.882 75.4418C281.333 75.4418 280.904 75.617 280.597 75.9673C280.289 76.313 280.135 76.7699 280.135 77.3381V84H277.202V77.196C277.202 76.661 277.048 76.2348 276.74 75.9176C276.437 75.6004 276.037 75.4418 275.54 75.4418C275.204 75.4418 274.901 75.527 274.631 75.6974C274.366 75.8632 274.155 76.0975 273.999 76.4006C273.842 76.6989 273.764 77.0492 273.764 77.4517V84H270.739ZM293.667 84V69.4545H296.742V81.4645H302.978V84H293.667ZM305.014 84V69.4545H308.089V81.4645H314.325V84H305.014ZM328.629 74.5469H325.518C325.462 74.1444 325.346 73.7869 325.17 73.4744C324.995 73.1572 324.77 72.8873 324.496 72.6648C324.221 72.4422 323.904 72.2718 323.544 72.1534C323.189 72.035 322.803 71.9759 322.386 71.9759C321.634 71.9759 320.978 72.1629 320.419 72.5369C319.86 72.9062 319.427 73.446 319.119 74.1562C318.812 74.8617 318.658 75.7187 318.658 76.7273C318.658 77.7642 318.812 78.6354 319.119 79.3409C319.432 80.0464 319.867 80.5791 320.426 80.9389C320.985 81.2988 321.631 81.4787 322.365 81.4787C322.777 81.4787 323.158 81.4242 323.509 81.3153C323.864 81.2064 324.179 81.0478 324.453 80.8395C324.728 80.6264 324.955 80.3684 325.135 80.0653C325.32 79.7623 325.447 79.4167 325.518 79.0284L328.629 79.0426C328.549 79.7102 328.348 80.3542 328.026 80.9744C327.708 81.59 327.28 82.1416 326.74 82.6293C326.205 83.1122 325.566 83.4957 324.822 83.7798C324.084 84.0592 323.248 84.1989 322.315 84.1989C321.018 84.1989 319.858 83.9053 318.835 83.3182C317.817 82.7311 317.012 81.8812 316.42 80.7685C315.833 79.6558 315.54 78.3087 315.54 76.7273C315.54 75.1411 315.838 73.7917 316.435 72.679C317.031 71.5663 317.841 70.7187 318.864 70.1364C319.886 69.5492 321.037 69.2557 322.315 69.2557C323.158 69.2557 323.939 69.3741 324.659 69.6108C325.384 69.8475 326.025 70.1932 326.584 70.6477C327.143 71.0975 327.597 71.6491 327.947 72.3026C328.303 72.956 328.53 73.7041 328.629 74.5469Z" fill="white"/>
<defs>
<radialGradient id="paint0_angular_66_792" cx="0" cy="0" r="1" gradientUnits="userSpaceOnUse" gradientTransform="translate(51.9316 53.75) rotate(141.461) scale(33.5597)">
<stop stop-color="#F0F0F0"/>
<stop offset="1" stop-color="#878787"/>
</radialGradient>
</defs>
</svg>
