<svg width="40" height="40" viewBox="0 0 40 40" fill="none" xmlns="http://www.w3.org/2000/svg">
<g clip-path="url(#clip0_497_1595)">
<g filter="url(#filter0_di_497_1595)">
<path d="M30 40.01H10C6.68629 40.01 4 37.3237 4 34.01V6.01001C4 2.6963 6.68629 0.0100098 10 0.0100098H20.5147C22.106 0.0100098 23.6321 0.642152 24.7574 1.76737L34.2426 11.2527C35.3679 12.3779 36 13.904 36 15.4953V34.01C36 37.3237 33.3137 40.01 30 40.01Z" fill="white"/>
<path d="M30 39.26H10C7.10051 39.26 4.75 36.9095 4.75 34.01V6.01001C4.75 3.11052 7.10051 0.76001 10 0.76001H20.5147C21.9071 0.76001 23.2425 1.31313 24.227 2.2977L33.7123 11.783C34.6969 12.7675 35.25 14.1029 35.25 15.4953V34.01C35.25 36.9095 32.8995 39.26 30 39.26Z" stroke="#CDD0D5" stroke-width="1.5"/>
</g>
<path d="M23 1.01001V9.01001C23 11.2191 24.7909 13.01 27 13.01H35" stroke="#CDD0D5" stroke-width="1.5"/>
<g filter="url(#filter1_i_497_1595)">
<mask id="path-4-inside-1_497_1595" fill="white">
<path d="M0 22.01C0 19.8009 1.79086 18.01 4 18.01H24C26.2091 18.01 28 19.8009 28 22.01V30.01C28 32.2191 26.2091 34.01 24 34.01H4C1.79086 34.01 0 32.2191 0 30.01V22.01Z"/>
</mask>
<path d="M0 22.01C0 19.8009 1.79086 18.01 4 18.01H24C26.2091 18.01 28 19.8009 28 22.01V30.01C28 32.2191 26.2091 34.01 24 34.01H4C1.79086 34.01 0 32.2191 0 30.01V22.01Z" fill="#DF1C41"/>
<path d="M-1 22.01C-1 19.2486 1.23858 17.01 4 17.01H24C26.7614 17.01 29 19.2486 29 22.01H27C27 20.3532 25.6569 19.01 24 19.01H4C2.34315 19.01 1 20.3532 1 22.01H-1ZM28 34.01H0H28ZM4 34.01C1.23858 34.01 -1 31.7714 -1 29.01V22.01C-1 19.2486 1.23858 17.01 4 17.01V19.01C2.34315 19.01 1 20.3532 1 22.01V30.01C1 32.2191 2.34315 34.01 4 34.01ZM24 17.01C26.7614 17.01 29 19.2486 29 22.01V29.01C29 31.7714 26.7614 34.01 24 34.01C25.6569 34.01 27 32.2191 27 30.01V22.01C27 20.3532 25.6569 19.01 24 19.01V17.01Z" fill="black" fill-opacity="0.08" mask="url(#path-4-inside-1_497_1595)"/>
<path d="M3.78906 30.01V22.01H6.78906C7.40365 22.01 7.91927 22.1246 8.33594 22.3538C8.75521 22.5829 9.07161 22.898 9.28516 23.2991C9.5013 23.6975 9.60938 24.1506 9.60938 24.6584C9.60938 25.1715 9.5013 25.6272 9.28516 26.0256C9.06901 26.4241 8.75 26.7379 8.32812 26.967C7.90625 27.1936 7.38672 27.3069 6.76953 27.3069H4.78125V26.1155H6.57422C6.93359 26.1155 7.22786 26.053 7.45703 25.928C7.6862 25.803 7.85547 25.6311 7.96484 25.4124C8.07682 25.1936 8.13281 24.9423 8.13281 24.6584C8.13281 24.3746 8.07682 24.1246 7.96484 23.9084C7.85547 23.6923 7.6849 23.5243 7.45313 23.4045C7.22396 23.2821 6.92839 23.2209 6.56641 23.2209H5.23828V30.01H3.78906ZM13.7991 30.01H11.0882V22.01H13.8538C14.6481 22.01 15.3304 22.1702 15.9007 22.4905C16.4736 22.8082 16.9137 23.2652 17.221 23.8616C17.5283 24.4579 17.6819 25.1715 17.6819 26.0022C17.6819 26.8355 17.527 27.5517 17.2171 28.1506C16.9098 28.7496 16.4658 29.2092 15.885 29.5295C15.3069 29.8499 14.6116 30.01 13.7991 30.01ZM12.5374 28.7561H13.7288C14.2861 28.7561 14.7509 28.6545 15.1233 28.4514C15.4957 28.2457 15.7757 27.9397 15.9632 27.5334C16.1507 27.1246 16.2444 26.6142 16.2444 26.0022C16.2444 25.3902 16.1507 24.8824 15.9632 24.4788C15.7757 24.0725 15.4983 23.7691 15.1311 23.5686C14.7665 23.3655 14.3134 23.2639 13.7718 23.2639H12.5374V28.7561ZM19.2789 30.01V22.01H24.4039V23.2249H20.7281V25.3967H24.0523V26.6116H20.7281V30.01H19.2789Z" fill="white"/>
</g>
</g>
<defs>
<filter id="filter0_di_497_1595" x="2" y="-3.98999" width="36" height="47" filterUnits="userSpaceOnUse" color-interpolation-filters="sRGB">
<feFlood flood-opacity="0" result="BackgroundImageFix"/>
<feColorMatrix in="SourceAlpha" type="matrix" values="0 0 0 0 0 0 0 0 0 0 0 0 0 0 0 0 0 0 127 0" result="hardAlpha"/>
<feOffset dy="1"/>
<feGaussianBlur stdDeviation="1"/>
<feComposite in2="hardAlpha" operator="out"/>
<feColorMatrix type="matrix" values="0 0 0 0 0.894118 0 0 0 0 0.898039 0 0 0 0 0.905882 0 0 0 0.24 0"/>
<feBlend mode="normal" in2="BackgroundImageFix" result="effect1_dropShadow_497_1595"/>
<feBlend mode="normal" in="SourceGraphic" in2="effect1_dropShadow_497_1595" result="shape"/>
<feColorMatrix in="SourceAlpha" type="matrix" values="0 0 0 0 0 0 0 0 0 0 0 0 0 0 0 0 0 0 127 0" result="hardAlpha"/>
<feOffset dy="-4"/>
<feGaussianBlur stdDeviation="2"/>
<feComposite in2="hardAlpha" operator="arithmetic" k2="-1" k3="1"/>
<feColorMatrix type="matrix" values="0 0 0 0 0.813571 0 0 0 0 0.82 0 0 0 0 0.826429 0 0 0 0.32 0"/>
<feBlend mode="normal" in2="shape" result="effect2_innerShadow_497_1595"/>
</filter>
<filter id="filter1_i_497_1595" x="0" y="18.01" width="28" height="20" filterUnits="userSpaceOnUse" color-interpolation-filters="sRGB">
<feFlood flood-opacity="0" result="BackgroundImageFix"/>
<feBlend mode="normal" in="SourceGraphic" in2="BackgroundImageFix" result="shape"/>
<feColorMatrix in="SourceAlpha" type="matrix" values="0 0 0 0 0 0 0 0 0 0 0 0 0 0 0 0 0 0 127 0" result="hardAlpha"/>
<feOffset dy="4"/>
<feGaussianBlur stdDeviation="2"/>
<feComposite in2="hardAlpha" operator="arithmetic" k2="-1" k3="1"/>
<feColorMatrix type="matrix" values="0 0 0 0 1 0 0 0 0 1 0 0 0 0 1 0 0 0 0.08 0"/>
<feBlend mode="normal" in2="shape" result="effect1_innerShadow_497_1595"/>
</filter>
<clipPath id="clip0_497_1595">
<rect width="40" height="40" fill="white" transform="translate(0 0.0100098)"/>
</clipPath>
</defs>
</svg>
