<svg width="24" height="24" viewBox="0 0 24 24" fill="none" xmlns="http://www.w3.org/2000/svg">
<path d="M12 12.5274L15.8187 16.3452L14.5452 17.6187L12.9 15.9735V21H11.1V15.9717L9.4548 17.6187L8.18131 16.3452L12 12.5274ZM12 3C13.5453 3.00007 15.0367 3.568 16.1906 4.59581C17.3445 5.62361 18.0805 7.03962 18.2586 8.5746C19.3784 8.87998 20.3554 9.56919 21.0186 10.5218C21.6818 11.4744 21.9892 12.6297 21.8871 13.786C21.7849 14.9422 21.2796 16.0257 20.4596 16.8472C19.6396 17.6687 18.5569 18.1759 17.4009 18.2802V16.4676C17.8151 16.4085 18.2133 16.2674 18.5723 16.0527C18.9314 15.8379 19.2441 15.5539 19.4921 15.217C19.7402 14.8801 19.9186 14.4972 20.0171 14.0906C20.1155 13.6839 20.132 13.2618 20.0655 12.8488C19.9991 12.4357 19.851 12.0401 19.6299 11.6849C19.4089 11.3297 19.1193 11.0221 18.7781 10.78C18.4369 10.538 18.0508 10.3663 17.6426 10.2751C17.2343 10.1838 16.8119 10.1748 16.4001 10.2486C16.5411 9.5924 16.5334 8.91297 16.3778 8.2601C16.2222 7.60722 15.9225 6.99743 15.5006 6.47538C15.0788 5.95333 14.5456 5.53225 13.9399 5.24298C13.3343 4.9537 12.6716 4.80357 12.0005 4.80357C11.3293 4.80357 10.6666 4.9537 10.061 5.24298C9.45535 5.53225 8.92209 5.95333 8.50027 6.47538C8.07845 6.99743 7.77874 7.60722 7.62311 8.2601C7.46748 8.91297 7.45986 9.5924 7.60081 10.2486C6.7797 10.0944 5.93096 10.2727 5.24131 10.7443C4.55167 11.2159 4.0776 11.9421 3.92341 12.7632C3.76921 13.5843 3.94751 14.433 4.41909 15.1227C4.89067 15.8123 5.6169 16.2864 6.43801 16.4406L6.60001 16.4676V18.2802C5.44391 18.1761 4.36117 17.669 3.54103 16.8476C2.72088 16.0261 2.2155 14.9426 2.11321 13.7863C2.01092 12.6301 2.31824 11.4747 2.98144 10.522C3.64464 9.56934 4.62154 8.88005 5.74141 8.5746C5.91934 7.03954 6.65527 5.62342 7.80923 4.59558C8.96318 3.56774 10.4547 2.99988 12 3Z" fill="#525866"/>
</svg>
